<?xml version="1.0" encoding="UTF-8" standalone="no"?>
<svg
   id="Capa_1"
   width="92.921219"
   height="22.569397"
   viewBox="0 0 92.92122 22.569398"
   version="1.1"
   sodipodi:docname="innovalab.svg"
   xml:space="preserve"
   inkscape:version="1.3 (0e150ed6c4, 2023-07-21)"
   xmlns:inkscape="http://www.inkscape.org/namespaces/inkscape"
   xmlns:sodipodi="http://sodipodi.sourceforge.net/DTD/sodipodi-0.dtd"
   xmlns="http://www.w3.org/2000/svg"
   xmlns:svg="http://www.w3.org/2000/svg"><sodipodi:namedview
     id="namedview10"
     pagecolor="#ffffff"
     bordercolor="#000000"
     borderopacity="0.25"
     inkscape:showpageshadow="2"
     inkscape:pageopacity="0.0"
     inkscape:pagecheckerboard="0"
     inkscape:deskcolor="#d1d1d1"
     inkscape:zoom="8.3201177"
     inkscape:cx="46.213288"
     inkscape:cy="23.497264"
     inkscape:window-width="1920"
     inkscape:window-height="1009"
     inkscape:window-x="-8"
     inkscape:window-y="-8"
     inkscape:window-maximized="1"
     inkscape:current-layer="Capa_1" /><defs
     id="defs1"><style
       id="style1">.cls-1{fill:#fff;}.cls-2{fill:#30c6a9;}</style><clipPath
       clipPathUnits="userSpaceOnUse"
       id="clipPath25"><path
         d="M 0,700 H 700 V 0 H 0 Z"
         id="path23" /></clipPath></defs><rect
     class="cls-2"
     x="0"
     y="0"
     width="92.921219"
     height="22.569397"
     rx="4.0907702"
     ry="3.5550084"
     id="rect1"
     style="stroke-width:0.0828841" /><g
     id="LOGO_FINAL"
     transform="matrix(0.08891047,0,0,0.07726599,-1.2687529,-1.4997323)"><path
       class="cls-1"
       d="M 254.41,103.56 166.2,52.48 c -4.29,-2.48 -9.58,-2.48 -13.87,0 l -88.21,51.08 c -4.29,2.48 -6.93,7.07 -6.93,12.04 v 102.15 c 0,4.97 2.64,9.56 6.93,12.04 l 88.21,51.08 c 4.29,2.48 9.58,2.48 13.87,0 l 88.21,-51.08 c 4.29,-2.48 6.93,-7.07 6.93,-12.04 V 115.6 c 0,-4.97 -2.64,-9.56 -6.93,-12.04 z m -80.53,16.86 v 20.78 c 0,0 -8.29,-0.8 -15.02,-0.62 -5.34,0.14 -13.88,-0.23 -13.88,-0.23 v -8.79 c 0,-2.58 1.44,-3.08 4.24,-4.67 l 20.42,-11.13 c 2.34,0 4.24,2.09 4.24,4.67 z M 145.04,85.78 c 0,-1.07 0.58,-2.06 1.51,-2.59 l 11.36,-6.27 c 0.93,-0.53 2.09,-0.53 3.02,0 l 11.58,6.14 c 0.93,0.53 1.51,1.52 1.51,2.59 V 98.2 c 0,1.07 -0.58,2.06 -1.51,2.59 l -11.58,6.4 c -0.93,0.53 -2.09,0.53 -3.02,0 l -11.36,-6.27 c -0.93,-0.53 -1.51,-1.52 -1.51,-2.59 z m -0.06,143.02 v -9.97 c 0,0 6.96,0.55 9.29,0.62 3.41,0.1 10.24,-0.19 13.66,-0.11 1.49,0.03 5.95,0.39 5.95,0.39 v 0.96 c 0,1.47 -1.44,1.64 -4.24,3.23 l -20.42,9.54 c -2.34,0 -4.24,-2.09 -4.24,-4.67 z m 44.29,4.86 c -11.69,4.72 -31.51,4.04 -33.29,8.31 -1.77,4.27 9.91,8.99 4.07,8.99 -5.84,0 -13.63,-4.72 -11.69,-9.44 1.95,-4.72 5.84,-6.29 11.69,-7.86 4.13,-1.11 27.27,-3.15 25.32,-9.44 -1.95,-6.29 -9.74,-6.29 -21.43,-6.29 -11.69,0 -35.11,0.31 -43.85,-8.5 -8.74,-8.81 -7.31,-18.89 4.63,-25.64 4.91,-2.78 11.43,-4.67 17.94,-6.06 v 11.25 c -0.71,0.2 -1.43,0.4 -2.09,0.63 -13.63,4.72 -15.58,12.58 -1.95,15.73 17.27,3.98 34.11,3.15 48.7,7.86 9.74,3.15 13.63,15.73 1.95,20.45 z m -44.29,-29.44 v -52.48 c 0,0 9.78,0.92 14.8,1.72 4.64,0.75 14.09,2.82 14.09,2.82 v 51.04 c 0,0 -8,-0.51 -14.09,-1.07 -7.24,-0.67 -14.81,-2.03 -14.81,-2.03 z m 46.23,-27.19 c -4.29,2.62 -9.44,4.4 -14.91,5.72 v -11.46 c 5.81,-1.86 11.01,-4.54 11.01,-8.42 0,-6.29 -20.11,-12.2 -49.98,-13.18 -29.88,-0.98 -21.71,-25.74 -18.19,-29.29 3.64,-3.67 5.79,-6.07 8.18,-7.83 2.18,-1.6 3.5,-3.18 7.4,-3.18 3.9,0 19.48,0 9.74,9.44 -9.74,9.44 -15.58,6.29 -17.53,9.44 -1.89,3.06 -1.95,11.01 3.9,12.58 2.83,0.76 8.02,1.09 13.91,1.26 6.29,0.18 13.37,0.18 19.2,0.31 10.27,0.24 24.28,2.3 31.17,7.87 9.74,7.86 10.24,18.09 -3.9,26.74 z"
       id="path1" /><path
       class="cls-1"
       d="m 290.55,110.33 h 29.16 v 115.69 h -29.16 z"
       id="path2" /><path
       class="cls-1"
       d="M 382.52,226.02 V 167.1 c 0,-8.64 -3.41,-12.03 -10.08,-12.03 -4.36,0 -8.58,2 -10.9,5.4 v 65.56 h -26.16 v -93.79 l 18.8,-1.23 3.68,7.4 c 6.13,-5.55 13.9,-8.48 22.07,-8.48 17.58,0 28.88,13.27 28.88,37.17 v 58.92 h -26.3 z"
       id="path3" /><path
       class="cls-1"
       d="M 468.9,226.02 V 167.1 c 0,-8.64 -3.41,-12.03 -10.08,-12.03 -4.36,0 -8.58,2 -10.9,5.4 v 65.56 h -26.16 v -93.79 l 18.8,-1.23 3.68,7.4 c 6.13,-5.55 13.9,-8.48 22.07,-8.48 17.58,0 28.88,13.27 28.88,37.17 v 58.92 h -26.3 z"
       id="path4" /><path
       class="cls-1"
       d="m 544.24,228.18 c -27.25,0 -39.38,-14.34 -39.38,-48.9 0,-34.56 12.26,-49.36 39.51,-49.36 27.25,0 39.24,14.81 39.24,49.36 0,34.55 -11.85,48.9 -39.38,48.9 z m 0.14,-23.14 c 8.99,0 12.13,-4.94 12.13,-25.76 0,-20.82 -3.13,-25.76 -12.13,-25.76 -9,0 -12.26,4.63 -12.26,25.76 0,21.13 3.27,25.76 12.26,25.76 z"
       id="path5" /><path
       class="cls-1"
       d="m 673.54,131.62 -29.16,94.4 H 614 l -28.88,-94.4 h 28.48 l 12.81,54.76 2.72,12.03 h 0.41 l 2.59,-12.03 12.94,-54.76 h 28.48 z"
       id="path6" /><path
       class="cls-1"
       d="m 722.73,218.31 c -5.45,5.86 -12.81,9.26 -21.66,9.26 -16.21,0 -26.02,-10.49 -26.02,-31.62 0,-17.28 11.04,-29.77 29.7,-29.77 5.59,0 10.08,0.77 14.03,2.01 v -3.39 c 0,-6.94 -3.54,-10.8 -13.76,-10.8 -9.4,0 -14.85,1.54 -22.75,4.78 l -2.04,-22.52 c 8.58,-4.16 18.53,-6.17 29.7,-6.17 26.3,0 34.88,12.8 34.88,38.87 v 57.07 h -20.16 l -1.91,-7.71 z m -3.96,-31.32 c -1.91,-0.62 -4.9,-1.39 -8.99,-1.39 -6.95,0 -10.22,3.24 -10.22,10.03 0,6.79 3.41,9.56 8.72,9.56 5.59,0 10.49,-3.55 10.49,-8.64 z"
       id="path7" /><path
       class="cls-1"
       d="m 825.73,198.25 -0.54,27.77 H 758.43 V 110.33 h 28.75 v 87.92 h 38.56 z"
       id="path8" /><path
       class="cls-1"
       d="m 879.14,218.31 c -5.45,5.86 -12.81,9.26 -21.66,9.26 -16.21,0 -26.02,-10.49 -26.02,-31.62 0,-17.28 11.04,-29.77 29.7,-29.77 5.59,0 10.08,0.77 14.03,2.01 v -3.39 c 0,-6.94 -3.54,-10.8 -13.76,-10.8 -9.4,0 -14.85,1.54 -22.75,4.78 l -2.04,-22.52 c 8.58,-4.16 18.53,-6.17 29.7,-6.17 26.3,0 34.88,12.8 34.88,38.87 v 57.07 h -20.16 l -1.91,-7.71 z m -3.96,-31.32 c -1.91,-0.62 -4.9,-1.39 -8.99,-1.39 -6.95,0 -10.22,3.24 -10.22,10.03 0,6.79 3.41,9.56 8.72,9.56 5.59,0 10.49,-3.55 10.49,-8.64 z"
       id="path9" /><path
       class="cls-1"
       d="m 956.11,227.87 c -8.86,0 -15.94,-3.55 -20.85,-8.79 l -3,6.94 H 914.55 V 106.78 l 26.16,-1.39 v 18.97 l -0.27,12.34 0.41,0.31 c 5.31,-4.78 11.85,-6.94 18.39,-6.94 19.21,0 31.34,14.5 31.34,48.43 0,33.93 -13.08,49.36 -34.47,49.36 z m -4.49,-72.96 c -4.63,0 -8.58,2.31 -10.9,6.17 v 37.48 c 2.18,3.7 5.72,6.48 11.04,6.48 7.63,0 11.72,-4.16 11.72,-25.91 0,-21.75 -3.81,-24.22 -11.85,-24.22 z"
       id="path10" /></g></svg>
